<svg width="1422" height="265" viewBox="0 0 1422 265" fill="none" xmlns="http://www.w3.org/2000/svg">
<path d="M0.104675 1.5H253.034C307.136 0.914062 353.034 46.4219 352.253 100.719C352.253 120.445 346.98 138.414 336.433 154.43C326.081 170.25 312.214 182.359 295.027 190.367L352.253 264H243.269L193.855 199.938H102.448V264H0.104675V1.5ZM227.253 78.2578H102.448V122.984H227.253C233.503 122.984 238.777 120.836 243.073 116.539C247.566 112.047 249.714 106.773 249.714 100.719C249.714 88.2188 239.753 78.2578 227.253 78.2578ZM382.889 264.195V1.69531H690.116V68.8828H485.233V102.477H690.116V163.219H485.233V196.812H690.116V264.195H382.889Z" fill="black"/>
<path d="M812.158 1.69531L892.236 183.922L972.314 1.69531H1087.55L952.978 264.195H831.298L696.923 1.69531H812.158ZM1220.14 77.6719L1184 155.211H1256.08L1220.14 77.6719ZM1018.38 264.195L1159.2 1.69531H1280.88L1421.7 264.195H1306.47L1285.76 219.273H1154.32L1133.61 264.195H1018.38Z" fill="#FB0337"/>
</svg>
