<svg width="160" height="31" viewBox="0 0 160 31" fill="none" xmlns="http://www.w3.org/2000/svg">
<path d="M0.842671 0.844765H28.935C34.9439 0.779686 40.0417 5.83413 39.9549 11.8647C39.9549 14.0557 39.3692 16.0515 38.1978 17.8303C37.0481 19.5874 35.5079 20.9324 33.5989 21.8218L39.9549 30H27.8503L22.362 22.8847H12.2097V30H0.842671V0.844765ZM26.0715 9.37007H12.2097V14.3377H26.0715C26.7657 14.3377 27.3514 14.0991 27.8286 13.6219C28.3276 13.1229 28.5662 12.5372 28.5662 11.8647C28.5662 10.4764 27.4598 9.37007 26.0715 9.37007ZM43.4909 30.0217V0.866458H77.6138V8.32881H54.858V12.06H77.6138V18.8065H54.858V22.5376H77.6138V30.0217H43.4909Z" fill="black"/>
<path d="M91.302 0.866458L100.196 21.1059L109.09 0.866458H121.889L106.943 30.0217H93.4279L78.5032 0.866458H91.302ZM136.749 9.30499L132.735 17.9171H140.74L136.749 9.30499ZM114.34 30.0217L129.98 0.866458H143.495L159.136 30.0217H146.337L144.037 25.0323H129.438L127.139 30.0217H114.34Z" fill="#FF0000"/>
</svg>
