<svg width="141" height="27" viewBox="0 0 141 27" fill="none" xmlns="http://www.w3.org/2000/svg">
<path d="M0.78889 0.323998H25.5288C30.8206 0.266686 35.3101 4.71796 35.2337 10.0289C35.2337 11.9584 34.7179 13.716 33.6863 15.2826C32.6737 16.83 31.3174 18.0145 29.6362 18.7977L35.2337 26H24.5736L19.7402 19.7338H10.7995V26H0.78889V0.323998ZM23.007 7.83194H10.7995V12.2068H23.007C23.6184 12.2068 24.1342 11.9966 24.5545 11.5764C24.9939 11.137 25.204 10.6211 25.204 10.0289C25.204 8.80625 24.2297 7.83194 23.007 7.83194ZM38.3477 26.0191V0.343103H68.3985V6.91494H48.3583V10.2009H68.3985V16.1422H48.3583V19.4282H68.3985V26.0191H38.3477Z" fill="white"/>
<path d="M80.4533 0.343103L88.286 18.1673L96.1187 0.343103H107.39L94.2274 26.0191H82.3255L69.1818 0.343103H80.4533ZM120.476 7.77462L116.942 15.359H123.992L120.476 7.77462ZM100.742 26.0191L114.516 0.343103H126.418L140.192 26.0191H128.921L126.895 21.6251H114.038L112.013 26.0191H100.742Z" fill="#FF0000"/>
</svg>
